<svg width="26" height="26" viewBox="0 0 26 26" fill="none" xmlns="http://www.w3.org/2000/svg">
<path d="M1.625 23.1562C1.625 23.4795 1.7534 23.7895 1.98196 24.018C2.21052 24.2466 2.52052 24.375 2.84375 24.375H23.1562C23.4795 24.375 23.7895 24.2466 24.018 24.018C24.2466 23.7895 24.375 23.4795 24.375 23.1562V8.9375H1.625V23.1562ZM17.875 10.7656C17.875 10.7118 17.8964 10.6601 17.9345 10.622C17.9726 10.5839 18.0243 10.5625 18.0781 10.5625H20.1094C20.1632 10.5625 20.2149 10.5839 20.253 10.622C20.2911 10.6601 20.3125 10.7118 20.3125 10.7656V12.7969C20.3125 12.8507 20.2911 12.9024 20.253 12.9405C20.2149 12.9786 20.1632 13 20.1094 13H18.0781C18.0243 13 17.9726 12.9786 17.9345 12.9405C17.8964 12.9024 17.875 12.8507 17.875 12.7969V10.7656ZM17.875 14.8281C17.875 14.7743 17.8964 14.7226 17.9345 14.6845C17.9726 14.6464 18.0243 14.625 18.0781 14.625H20.1094C20.1632 14.625 20.2149 14.6464 20.253 14.6845C20.2911 14.7226 20.3125 14.7743 20.3125 14.8281V16.8594C20.3125 16.9132 20.2911 16.9649 20.253 17.003C20.2149 17.0411 20.1632 17.0625 20.1094 17.0625H18.0781C18.0243 17.0625 17.9726 17.0411 17.9345 17.003C17.8964 16.9649 17.875 16.9132 17.875 16.8594V14.8281ZM13.8125 10.7656C13.8125 10.7118 13.8339 10.6601 13.872 10.622C13.9101 10.5839 13.9618 10.5625 14.0156 10.5625H16.0469C16.1007 10.5625 16.1524 10.5839 16.1905 10.622C16.2286 10.6601 16.25 10.7118 16.25 10.7656V12.7969C16.25 12.8507 16.2286 12.9024 16.1905 12.9405C16.1524 12.9786 16.1007 13 16.0469 13H14.0156C13.9618 13 13.9101 12.9786 13.872 12.9405C13.8339 12.9024 13.8125 12.8507 13.8125 12.7969V10.7656ZM13.8125 14.8281C13.8125 14.7743 13.8339 14.7226 13.872 14.6845C13.9101 14.6464 13.9618 14.625 14.0156 14.625H16.0469C16.1007 14.625 16.1524 14.6464 16.1905 14.6845C16.2286 14.7226 16.25 14.7743 16.25 14.8281V16.8594C16.25 16.9132 16.2286 16.9649 16.1905 17.003C16.1524 17.0411 16.1007 17.0625 16.0469 17.0625H14.0156C13.9618 17.0625 13.9101 17.0411 13.872 17.003C13.8339 16.9649 13.8125 16.9132 13.8125 16.8594V14.8281ZM13.8125 18.8906C13.8125 18.8368 13.8339 18.7851 13.872 18.747C13.9101 18.7089 13.9618 18.6875 14.0156 18.6875H16.0469C16.1007 18.6875 16.1524 18.7089 16.1905 18.747C16.2286 18.7851 16.25 18.8368 16.25 18.8906V20.9219C16.25 20.9757 16.2286 21.0274 16.1905 21.0655C16.1524 21.1036 16.1007 21.125 16.0469 21.125H14.0156C13.9618 21.125 13.9101 21.1036 13.872 21.0655C13.8339 21.0274 13.8125 20.9757 13.8125 20.9219V18.8906ZM9.75 14.8281C9.75 14.7743 9.7714 14.7226 9.80949 14.6845C9.84759 14.6464 9.89925 14.625 9.95312 14.625H11.9844C12.0382 14.625 12.0899 14.6464 12.128 14.6845C12.1661 14.7226 12.1875 14.7743 12.1875 14.8281V16.8594C12.1875 16.9132 12.1661 16.9649 12.128 17.003C12.0899 17.0411 12.0382 17.0625 11.9844 17.0625H9.95312C9.89925 17.0625 9.84759 17.0411 9.80949 17.003C9.7714 16.9649 9.75 16.9132 9.75 16.8594V14.8281ZM9.75 18.8906C9.75 18.8368 9.7714 18.7851 9.80949 18.747C9.84759 18.7089 9.89925 18.6875 9.95312 18.6875H11.9844C12.0382 18.6875 12.0899 18.7089 12.128 18.747C12.1661 18.7851 12.1875 18.8368 12.1875 18.8906V20.9219C12.1875 20.9757 12.1661 21.0274 12.128 21.0655C12.0899 21.1036 12.0382 21.125 11.9844 21.125H9.95312C9.89925 21.125 9.84759 21.1036 9.80949 21.0655C9.7714 21.0274 9.75 20.9757 9.75 20.9219V18.8906ZM5.6875 14.8281C5.6875 14.7743 5.7089 14.7226 5.74699 14.6845C5.78509 14.6464 5.83675 14.625 5.89062 14.625H7.92188C7.97575 14.625 8.02741 14.6464 8.06551 14.6845C8.1036 14.7226 8.125 14.7743 8.125 14.8281V16.8594C8.125 16.9132 8.1036 16.9649 8.06551 17.003C8.02741 17.0411 7.97575 17.0625 7.92188 17.0625H5.89062C5.83675 17.0625 5.78509 17.0411 5.74699 17.003C5.7089 16.9649 5.6875 16.9132 5.6875 16.8594V14.8281ZM5.6875 18.8906C5.6875 18.8368 5.7089 18.7851 5.74699 18.747C5.78509 18.7089 5.83675 18.6875 5.89062 18.6875H7.92188C7.97575 18.6875 8.02741 18.7089 8.06551 18.747C8.1036 18.7851 8.125 18.8368 8.125 18.8906V20.9219C8.125 20.9757 8.1036 21.0274 8.06551 21.0655C8.02741 21.1036 7.97575 21.125 7.92188 21.125H5.89062C5.83675 21.125 5.78509 21.1036 5.74699 21.0655C5.7089 21.0274 5.6875 20.9757 5.6875 20.9219V18.8906ZM23.1562 3.25H20.3166V1.625H17.8791V3.25H8.12094V1.625H5.68344V3.25H2.84375C2.68431 3.24866 2.52618 3.27888 2.37847 3.33892C2.23077 3.39897 2.0964 3.48764 1.98311 3.59984C1.86983 3.71204 1.77986 3.84555 1.7184 3.99267C1.65694 4.1398 1.6252 4.29763 1.625 4.45707V7.3125H24.375V4.45707C24.3748 4.29763 24.3431 4.1398 24.2816 3.99267C24.2201 3.84555 24.1302 3.71204 24.0169 3.59984C23.9036 3.48764 23.7692 3.39897 23.6215 3.33892C23.4738 3.27888 23.3157 3.24866 23.1562 3.25Z" fill="#FF6400"/>
</svg>
