<svg width="23" height="27" viewBox="0 0 23 27" fill="none" xmlns="http://www.w3.org/2000/svg">
<path d="M11.0358 12.8902C10.3152 12.8902 9.62407 12.6039 9.1145 12.0944C8.60493 11.5848 8.31866 10.8937 8.31866 10.173C8.31866 9.4524 8.60493 8.76127 9.1145 8.25171C9.62407 7.74214 10.3152 7.45586 11.0358 7.45586C11.7565 7.45586 12.4476 7.74214 12.9572 8.25171C13.4667 8.76127 13.753 9.4524 13.753 10.173C13.753 10.5299 13.6827 10.8832 13.5462 11.2129C13.4096 11.5425 13.2095 11.8421 12.9572 12.0944C12.7049 12.3467 12.4053 12.5468 12.0757 12.6834C11.746 12.8199 11.3927 12.8902 11.0358 12.8902ZM11.0358 2.56494C9.01804 2.56494 7.08289 3.36651 5.6561 4.7933C4.2293 6.2201 3.42773 8.15525 3.42773 10.173C3.42773 15.8791 11.0358 24.3024 11.0358 24.3024C11.0358 24.3024 18.6439 15.8791 18.6439 10.173C18.6439 8.15525 17.8424 6.2201 16.4156 4.7933C14.9888 3.36651 13.0536 2.56494 11.0358 2.56494Z" fill="#FF6400"/>
</svg>
